<svg width="560px" height="642px" viewBox="0 0 560 642" version="1.1" 
    xmlns="http://www.w3.org/2000/svg" 
    xmlns:xlink="http://www.w3.org/1999/xlink">
    <g id="Page-1" stroke="none" stroke-width="1" fill="none" fill-rule="evenodd">
        <g id="Blueprint-14" transform="translate(-693.000000, -267.000000)">
            <g id="Fill-3" transform="translate(693.000000, 267.000000)">
                <path d="M220.777,72.334 L222.278,72.334 C222.278,59.519 227.29,47.936 235.384,39.552 C243.481,31.169 254.634,26.001 266.962,26 C279.29,26.001 290.443,31.169 298.54,39.552 C306.634,47.936 311.65,59.519 311.65,72.334 C311.65,85.148 306.634,96.731 298.54,105.115 C290.443,113.498 279.29,118.666 266.962,118.667 C254.634,118.666 243.481,113.498 235.384,105.115 C227.29,96.731 222.278,85.148 222.278,72.334 L219.277,72.334 C219.277,85.937 224.604,98.27 233.225,107.199 C241.844,116.129 253.783,121.668 266.962,121.667 C280.14,121.668 292.08,116.129 300.698,107.199 C309.32,98.27 314.65,85.937 314.65,72.334 C314.65,58.73 309.32,46.397 300.698,37.468 C292.08,28.539 280.14,22.999 266.962,23 C253.783,22.999 241.844,28.539 233.225,37.468 C224.604,46.397 219.277,58.73 219.277,72.334 L220.777,72.334" fill="#FFFFFE"></path>
                <path d="M220.777,576.666 L222.278,576.666 C222.278,563.851 227.29,552.268 235.384,543.885 C243.481,535.502 254.634,530.334 266.962,530.333 C279.29,530.334 290.443,535.502 298.54,543.885 C306.634,552.268 311.65,563.851 311.65,576.666 C311.65,589.481 306.634,601.064 298.54,609.448 C290.443,617.831 279.29,622.999 266.962,623 C254.634,622.999 243.481,617.831 235.384,609.448 C227.29,601.064 222.278,589.481 222.278,576.666 L219.277,576.666 C219.277,590.269 224.604,602.603 233.225,611.532 C241.844,620.461 253.783,626.001 266.962,626 C280.14,626.001 292.08,620.461 300.698,611.532 C309.32,602.603 314.65,590.269 314.65,576.666 C314.65,563.062 309.32,550.729 300.698,541.801 C292.08,532.871 280.14,527.332 266.962,527.333 C253.783,527.332 241.844,532.871 233.225,541.801 C224.604,550.729 219.277,563.062 219.277,576.666 L220.777,576.666" id="Fill-4" fill="#FFFFFE"></path>
                <path d="M438.77,197.955 L440.27,197.955 C440.27,185.141 445.28,173.557 453.37,165.173 C461.47,156.791 472.62,151.622 484.95,151.621 C497.28,151.622 508.43,156.791 516.53,165.173 C524.62,173.557 529.64,185.14 529.64,197.955 C529.64,210.77 524.62,222.353 516.53,230.737 C508.43,239.119 497.28,244.287 484.95,244.289 C472.62,244.287 461.47,239.119 453.37,230.737 C445.28,222.353 440.27,210.77 440.27,197.955 L437.27,197.955 C437.27,211.559 442.59,223.892 451.22,232.82 C459.83,241.75 471.77,247.29 484.95,247.289 C498.13,247.29 510.07,241.75 518.69,232.82 C527.31,223.892 532.64,211.559 532.64,197.955 C532.64,184.352 527.31,172.018 518.69,163.089 C510.07,154.16 498.13,148.62 484.95,148.621 C471.77,148.62 459.83,154.16 451.22,163.089 C442.59,172.018 437.27,184.352 437.27,197.955 L438.77,197.955" id="Fill-5" fill="#FFFFFE"></path>
                <path d="M438.77,450.121 L440.27,450.121 C440.27,437.307 445.28,425.723 453.37,417.339 C461.47,408.957 472.62,403.788 484.95,403.787 C497.28,403.788 508.43,408.957 516.53,417.339 C524.62,425.723 529.64,437.307 529.64,450.121 C529.64,462.936 524.62,474.519 516.53,482.903 C508.43,491.286 497.28,496.454 484.95,496.455 C472.62,496.454 461.47,491.286 453.37,482.903 C445.28,474.519 440.27,462.936 440.27,450.121 L437.27,450.121 C437.27,463.724 442.59,476.058 451.22,484.987 C459.83,493.917 471.77,499.456 484.95,499.455 C498.13,499.456 510.07,493.917 518.69,484.987 C527.31,476.058 532.64,463.724 532.64,450.121 C532.64,436.518 527.31,424.184 518.69,415.255 C510.07,406.326 498.13,400.786 484.95,400.787 C471.77,400.786 459.83,406.326 451.22,415.255 C442.59,424.184 437.27,436.518 437.27,450.121 L438.77,450.121" id="Fill-6" fill="#FFFFFE"></path>
                <path d="M182.831,262.767 L180.839,262.593 C186.155,201.547 199.176,149.288 216.849,114.802 L218.629,115.714 C201.134,149.832 188.123,201.909 182.831,262.767" id="Fill-7" fill-opacity="0.6" fill="#FFFFFF"></path>
                <path d="M351.23,192.019 L350.64,190.106 C377.82,181.797 402.63,176.991 423.58,175.996 L423.67,177.994 C402.95,178.976 378.29,183.745 351.23,192.019" id="Fill-8" fill-opacity="0.6" fill="#FFFFFF"></path>
                <path d="M62.678,385.893 L61.001,384.803 C73.406,365.729 91.87,344.992 115.137,324.038 C115.635,324.487 116.133,324.933 116.636,325.382 C93.389,346.298 74.977,366.965 62.678,385.893 M118.136,324.038 C117.635,323.591 117.133,323.141 116.636,322.694 C145.5,296.915 181.592,270.851 222.587,247.178 C236.71,239.024 250.791,231.517 264.683,224.683 C265.442,225.051 266.203,225.421 266.963,225.793 C252.657,232.789 238.147,240.504 223.587,248.911 C182.782,272.464 146.855,298.414 118.136,324.038 M269.242,224.683 C268.482,224.309 267.723,223.938 266.963,223.567 C289.706,212.485 311.93,203.218 332.99,195.883 L333.65,197.772 C313.1,204.927 291.429,213.935 269.242,224.683" id="Fill-9" fill-opacity="0.6" fill="#FFFFFF"></path>
                <path d="M1.864,450.121 L3.364,450.121 C3.364,437.307 8.376,425.723 16.47,417.339 C24.567,408.957 35.72,403.788 48.048,403.787 C60.377,403.788 71.529,408.957 79.626,417.339 C87.72,425.723 92.732,437.307 92.732,450.121 C92.732,462.936 87.72,474.519 79.626,482.903 C71.529,491.286 60.377,496.454 48.048,496.455 C35.72,496.454 24.567,491.286 16.47,482.903 C8.376,474.519 3.364,462.936 3.364,450.121 L0.364,450.121 C0.363,463.724 5.69,476.058 14.312,484.987 C22.93,493.917 34.87,499.456 48.048,499.455 C61.227,499.456 73.166,493.917 81.785,484.987 C90.406,476.058 95.733,463.724 95.732,450.121 C95.733,436.518 90.406,424.184 81.785,415.255 C73.166,406.326 61.227,400.786 48.048,400.787 C34.87,400.786 22.93,406.326 14.312,415.255 C5.69,424.184 0.363,436.518 0.364,450.121 L1.864,450.121" id="Fill-10" fill="#FFFFFE"></path>
                <path d="M1.864,197.955 L3.364,197.955 C3.364,185.141 8.376,173.557 16.47,165.173 C24.567,156.791 35.72,151.622 48.048,151.621 C60.377,151.622 71.529,156.791 79.626,165.173 C87.72,173.557 92.732,185.14 92.732,197.955 C92.732,210.77 87.72,222.353 79.626,230.737 C71.529,239.119 60.377,244.287 48.048,244.289 C35.72,244.287 24.567,239.119 16.47,230.737 C8.376,222.353 3.364,210.77 3.364,197.955 L0.364,197.955 C0.363,211.559 5.69,223.892 14.312,232.82 C22.93,241.75 34.87,247.29 48.048,247.289 C61.227,247.29 73.166,241.75 81.785,232.82 C90.406,223.892 95.733,211.559 95.732,197.955 C95.733,184.352 90.406,172.018 81.785,163.089 C73.166,154.16 61.227,148.62 48.048,148.621 C34.87,148.62 22.93,154.16 14.312,163.089 C5.69,172.018 0.363,184.352 0.364,197.955 L1.864,197.955" id="Fill-11" fill="#FFFFFE"></path>
                <path d="M179.211,362.09 C178.558,349.677 178.212,336.975 178.212,324.038 C178.212,311.101 178.558,298.4 179.211,285.987 L181.208,286.093 C180.557,298.471 180.212,311.137 180.212,324.038 C180.212,336.939 180.557,349.606 181.208,361.985 L179.211,362.09" id="Fill-12" fill-opacity="0.6" fill="#FFFFFF"></path>
                <path d="M200.924,452.197 L200.266,450.308 C220.82,443.154 242.492,434.144 264.683,423.393 C265.442,423.766 266.205,424.14 266.963,424.509 C244.215,435.594 221.993,444.863 200.924,452.197 M269.242,423.393 C268.483,423.025 267.723,422.655 266.963,422.283 C281.268,415.287 295.778,407.572 310.34,399.166 C351.14,375.612 387.07,349.662 415.79,324.038 C416.29,324.485 416.79,324.936 417.29,325.382 C388.42,351.16 352.33,377.225 311.34,400.898 C297.214,409.051 283.134,416.559 269.242,423.393 M418.79,324.038 C418.29,323.59 417.79,323.142 417.29,322.694 C440.46,301.846 458.82,281.249 471.12,262.371 L472.8,263.463 C460.39,282.486 441.98,303.153 418.79,324.038" id="Fill-13" fill-opacity="0.6" fill="#FFFFFF"></path>
                <path d="M217.145,533.851 C199.322,499.372 186.185,446.87 180.839,385.483 L182.832,385.31 C188.153,446.507 201.28,498.827 218.922,532.932 L217.145,533.851" id="Fill-14" fill-opacity="0.6" fill="#FFFFFF"></path>
                <path d="M182.689,192.016 C155.226,183.62 130.234,178.84 109.323,177.96 L109.407,175.962 C130.553,176.853 155.689,181.671 183.273,190.103 L182.689,192.016" id="Fill-15" fill-opacity="0.6" fill="#FFFFFF"></path>
                <path d="M351.09,262.768 C345.8,201.91 332.79,149.832 315.29,115.714 L317.07,114.802 C334.75,149.288 347.77,201.548 353.09,262.594 L351.09,262.768" id="Fill-16" fill-opacity="0.6" fill="#FFFFFF"></path>
                <path d="M354.71,362.088 L352.72,361.983 C353.37,349.604 353.71,336.938 353.71,324.038 C353.71,311.138 353.37,298.472 352.72,286.094 L354.71,285.988 C355.37,298.401 355.71,311.102 355.71,324.038 C355.71,336.974 355.37,349.675 354.71,362.088" id="Fill-17" fill-opacity="0.6" fill="#FFFFFF"></path>
                <path d="M423.58,472.08 C402.64,471.086 377.85,466.284 350.68,457.983 L351.27,456.07 C378.31,464.336 402.96,469.101 423.67,470.082 L423.58,472.08" id="Fill-18" fill-opacity="0.6" fill="#FFFFFF"></path>
                <path d="M333,452.195 C311.93,444.86 289.71,435.593 266.963,424.509 C267.722,424.138 268.482,423.767 269.242,423.393 C291.433,434.143 313.1,443.151 333.66,450.306 L333,452.195 M264.683,423.393 C250.789,416.559 236.712,409.053 222.587,400.898 C181.592,377.225 145.5,351.16 116.636,325.382 C117.133,324.935 117.635,324.486 118.136,324.038 C146.855,349.663 182.782,375.612 223.587,399.166 C238.146,407.572 252.658,415.287 266.963,422.283 C266.203,422.655 265.442,423.025 264.683,423.393 M115.137,324.038 C91.87,303.084 73.406,282.348 61.001,263.274 L62.677,262.184 C74.977,281.112 93.389,301.778 116.636,322.694 C116.133,323.143 115.635,323.589 115.137,324.038" id="Fill-19" fill-opacity="0.6" fill="#FFFFFF"></path>
                <path d="M116.636,325.382 C116.133,324.933 115.635,324.487 115.137,324.038 C115.635,323.589 116.133,323.143 116.636,322.694 C117.133,323.141 117.635,323.591 118.136,324.038 C117.635,324.486 117.133,324.935 116.636,325.382" id="Fill-20" fill-opacity="0.6" fill="#FFFFFF"></path>
                <path d="M266.963,424.509 C266.205,424.14 265.442,423.766 264.683,423.393 C265.442,423.025 266.203,422.655 266.963,422.283 C267.723,422.655 268.483,423.025 269.242,423.393 C268.482,423.767 267.722,424.138 266.963,424.509" id="Fill-21" fill-opacity="0.6" fill="#FFFFFF"></path>
                <path d="M316.78,533.851 L315,532.932 C332.64,498.827 345.77,446.506 351.09,385.309 L353.08,385.482 C347.74,446.869 334.6,499.372 316.78,533.851" id="Fill-22" fill-opacity="0.6" fill="#FFFFFF"></path>
                <path d="M471.12,385.705 C458.82,366.827 440.46,346.23 417.29,325.382 C417.79,324.934 418.29,324.487 418.79,324.038 C441.98,344.924 460.39,365.59 472.8,384.613 L471.12,385.705 M415.79,324.038 C387.07,298.414 351.14,272.464 310.34,248.911 C295.778,240.505 281.268,232.789 266.963,225.793 C267.723,225.421 268.483,225.051 269.242,224.683 C283.134,231.517 297.215,239.025 311.34,247.178 C352.33,270.851 388.42,296.916 417.29,322.694 C416.79,323.14 416.29,323.591 415.79,324.038 M264.683,224.683 C242.493,213.932 220.822,204.923 200.268,197.768 L200.926,195.879 C221.995,203.213 244.216,212.482 266.963,223.567 C266.203,223.938 265.444,224.309 264.683,224.683" id="Fill-23" fill-opacity="0.6" fill="#FFFFFF"></path>
                <path d="M266.963,225.793 C266.203,225.421 265.442,225.051 264.683,224.683 C265.444,224.309 266.203,223.938 266.963,223.567 C267.723,223.938 268.482,224.309 269.242,224.683 C268.483,225.051 267.723,225.421 266.963,225.793" id="Fill-24" fill-opacity="0.6" fill="#FFFFFF"></path>
                <path d="M417.29,325.382 C416.79,324.936 416.29,324.485 415.79,324.038 C416.29,323.591 416.79,323.14 417.29,322.694 C417.79,323.142 418.29,323.59 418.79,324.038 C418.29,324.487 417.79,324.934 417.29,325.382" id="Fill-25" fill-opacity="0.6" fill="#FFFFFF"></path>
                <path d="M109.407,472.115 L109.323,470.117 C130.223,469.237 155.209,464.45 182.654,456.063 L183.239,457.976 C155.67,466.399 130.543,471.224 109.407,472.115" id="Fill-217" fill-opacity="0.6" fill="#FFFFFF"></path>
                <path d="M234.398,36.294 L203.345,5.24 L146.5,5.24 L146.5,3.24 L204.174,3.24 L235.865,34.932 C235.367,35.376 234.878,35.83 234.398,36.294" id="Fill-218" fill-opacity="0.4" fill="#FFFFFF"></path>
                <path d="M235.484,37.38 L234.398,36.294 C234.878,35.83 235.367,35.376 235.865,34.932 L236.899,35.965 L235.484,37.38" id="Fill-219" fill="#FFFFFE"></path>
                <path d="M127.5,8.5 C125.291,8.5 123.5,6.709 123.5,4.5 C123.5,2.291 125.291,0.5 127.5,0.5 C129.709,0.5 131.5,2.291 131.5,4.5 C131.5,6.709 129.709,8.5 127.5,8.5" id="Fill-220" fill-opacity="0.4" fill="#FFFFFF"></path>
                <path d="M107.5,8.5 C105.291,8.5 103.5,6.709 103.5,4.5 C103.5,2.291 105.291,0.5 107.5,0.5 C109.709,0.5 111.5,2.291 111.5,4.5 C111.5,6.709 109.709,8.5 107.5,8.5" id="Fill-221" fill-opacity="0.4" fill="#FFFFFF"></path>
                <path d="M87.5,8.5 C85.291,8.5 83.5,6.709 83.5,4.5 C83.5,2.291 85.291,0.5 87.5,0.5 C89.709,0.5 91.5,2.291 91.5,4.5 C91.5,6.709 89.709,8.5 87.5,8.5" id="Fill-222" fill-opacity="0.4" fill="#FFFFFF"></path>
                <path d="M67.5,8.5 C65.291,8.5 63.5,6.709 63.5,4.5 C63.5,2.291 65.291,0.5 67.5,0.5 C69.709,0.5 71.5,2.291 71.5,4.5 C71.5,6.709 69.709,8.5 67.5,8.5" id="Fill-223" fill-opacity="0.4" fill="#FFFFFF"></path>
                <path d="M47.5,8.5 C45.291,8.5 43.5,6.709 43.5,4.5 C43.5,2.291 45.291,0.5 47.5,0.5 C49.709,0.5 51.5,2.291 51.5,4.5 C51.5,6.709 49.709,8.5 47.5,8.5" id="Fill-224" fill-opacity="0.4" fill="#FFFFFF"></path>
                <polyline id="Fill-225" fill-opacity="0.4" fill="#FFFFFF" points="376.5 638 326.59 638 300.793 612.207 302.207 610.793 327.41 636 376.5 636 376.5 638"></polyline>
                <path d="M405.5,641.5 C403.29,641.5 401.5,639.709 401.5,637.5 C401.5,635.291 403.29,633.5 405.5,633.5 C407.71,633.5 409.5,635.291 409.5,637.5 C409.5,639.709 407.71,641.5 405.5,641.5" id="Fill-226" fill-opacity="0.4" fill="#FFFFFF"></path>
                <path d="M395.5,641.5 C393.29,641.5 391.5,639.709 391.5,637.5 C391.5,635.291 393.29,633.5 395.5,633.5 C397.71,633.5 399.5,635.291 399.5,637.5 C399.5,639.709 397.71,641.5 395.5,641.5" id="Fill-227" fill-opacity="0.4" fill="#FFFFFF"></path>
                <path d="M385.5,641.5 C383.29,641.5 381.5,639.709 381.5,637.5 C381.5,635.291 383.29,633.5 385.5,633.5 C387.71,633.5 389.5,635.291 389.5,637.5 C389.5,639.709 387.71,641.5 385.5,641.5" id="Fill-228" fill-opacity="0.4" fill="#FFFFFF"></path>
                <polyline id="Fill-229" fill-opacity="0.4" fill="#FFFFFF" points="2.5 541.5 0.5 541.5 0.5 497.5 2.5 497.5 2.5 521.422 1.5 522 2.5 522.578 2.5 541.5"></polyline>
                <polyline id="Fill-230" fill-opacity="0.4" fill="#FFFFFF" points="95.5 541.5 93.5 541.5 93.5 522.577 94.5 522 93.5 521.423 93.5 502.5 95.5 502.5 95.5 541.5"></polyline>
                <polygon id="Fill-231" fill-opacity="0.4" fill="#FFFFFF" points="10.135 523 13.676 523 13.676 521 10.135 521"></polygon>
                <path d="M62.71,523 L72.517,523 L72.517,521 L62.71,521 L62.71,523 Z M43.096,523 L52.903,523 L52.903,521 L43.096,521 L43.096,523 Z M23.483,523 L33.289,523 L33.289,521 L23.483,521 L23.483,523 Z" id="Fill-232" fill-opacity="0.4" fill="#FFFFFF"></path>
                <polygon id="Fill-233" fill-opacity="0.4" fill="#FFFFFF" points="82.324 523 85.865 523 85.865 521 82.324 521"></polygon>
                <polyline id="Fill-234" fill-opacity="0.4" fill="#FFFFFF" points="10.135 526.986 2.5 522.578 2.5 521.422 10.135 517.014 10.135 526.986"></polyline>
                <polyline id="Fill-236" fill-opacity="0.4" fill="#FFFFFF" points="85.865 526.986 85.865 517.014 93.5 521.423 93.5 522.577 85.865 526.986"></polyline>
                <path d="M532.5,25.5 L559.5,25.5 L559.5,23.5 L532.5,23.5 L532.5,25.5 Z M447.5,25.5 L530.5,25.5 L530.5,23.5 L447.5,23.5 L447.5,25.5 Z" id="Fill-238" fill-opacity="0.4" fill="#FFFFFF"></path>
                <path d="M530.5,105.5 L532.5,105.5 L532.5,25.5 L530.5,25.5 L530.5,105.5 Z M530.5,23.5 L532.5,23.5 L532.5,4.24 L530.5,4.24 L530.5,23.5 Z" id="Fill-239" fill-opacity="0.4" fill="#FFFFFF"></path>
                <polygon id="Fill-240" fill="#8485AE" points="530.5 25.5 532.5 25.5 532.5 23.5 530.5 23.5"></polygon>
                <path d="M29.587,182.022 C31.891,179.717 34.96,178.443 38.223,178.443 C41.485,178.443 44.564,179.717 46.879,182.032 L47.633,182.787 C47.868,183.021 48.184,183.153 48.52,183.153 C48.847,183.153 49.174,183.021 49.408,182.787 L50.141,182.052 C52.455,179.738 55.525,178.463 58.798,178.463 C62.06,178.463 65.128,179.738 67.433,182.042 C69.748,184.356 71.012,187.425 71.012,190.688 C71.012,193.951 69.738,197.02 67.423,199.334 L49.091,217.667 C48.795,217.962 48.255,217.962 47.95,217.667 L29.597,199.314 C27.282,197 26.008,193.931 26.008,190.667 C26.008,187.405 27.282,184.336 29.587,182.022 Z M46.186,219.429 C46.808,220.052 47.644,220.398 48.52,220.398 C49.386,220.398 50.243,220.042 50.856,219.429 L69.176,201.109 C71.961,198.325 73.49,194.624 73.5,190.698 C73.5,186.763 71.971,183.062 69.187,180.278 C66.404,177.495 62.712,175.965 58.777,175.965 C54.914,175.965 51.273,177.444 48.51,180.135 C45.737,177.434 42.087,175.945 38.212,175.945 C34.288,175.945 30.596,177.474 27.813,180.248 C25.029,183.031 23.5,186.732 23.5,190.667 C23.5,194.593 25.039,198.294 27.823,201.077 L46.186,219.429 Z" id="Fill-322" fill="#FFFFFE"></path>
                <path d="M277.901,574.361 C278.095,574.412 278.288,574.422 278.473,574.381 L278.473,593.673 C278.473,596.132 276.473,598.142 274.004,598.142 L252.661,598.142 C249.192,598.142 247.244,596.591 246.856,593.479 L244,575.523 L244,575.412 C244,572.953 245.999,570.943 248.468,570.943 L260.496,570.943 C261.19,570.943 261.751,570.382 261.751,569.688 L261.751,560.67 C261.751,558.231 262.363,556.549 263.577,555.65 C264.893,554.671 266.71,554.763 267.77,554.937 L267.77,562.649 C267.77,571.423 277.482,574.249 277.901,574.361 Z M262.098,553.631 C260.201,555.018 259.241,557.396 259.241,560.67 L259.241,568.443 L248.468,568.443 C244.632,568.443 241.5,571.565 241.5,575.412 L241.5,575.626 L241.52,575.819 L244.387,593.826 C244.918,598.151 247.938,600.642 252.661,600.642 L274.004,600.642 C277.841,600.642 280.972,597.519 280.972,593.673 L280.972,573.667 C280.972,573.065 281.461,572.576 282.064,572.576 L287.909,572.576 C288.512,572.576 289,573.065 289,573.667 L289,594.877 C289,595.479 288.512,595.969 287.909,595.969 L284.532,595.969 C283.839,595.969 283.277,596.53 283.277,597.224 C283.277,597.917 283.839,598.479 284.532,598.479 L287.909,598.479 C289.889,598.479 291.5,596.866 291.5,594.887 L291.5,573.667 C291.5,571.688 289.889,570.076 287.909,570.076 L282.064,570.076 C280.655,570.076 279.431,570.893 278.839,572.076 C278.758,572.024 278.665,571.994 278.563,571.964 C278.228,571.872 270.26,569.535 270.26,562.659 L270.26,553.927 C270.26,553.375 269.902,552.896 269.382,552.732 C269.22,552.682 265.097,551.427 262.098,553.631 Z" id="Fill-323" fill="#FFFFFE"></path>
                <path d="M38.998,435.309 C41.134,435.309 42.86,437.044 42.86,439.169 C42.86,441.295 41.123,443.032 38.998,443.032 C36.874,443.032 35.137,441.295 35.137,439.169 C35.137,437.044 36.863,435.309 38.998,435.309 Z M38.998,445.534 C42.514,445.534 45.364,442.674 45.364,439.169 C45.364,435.666 42.502,432.805 38.998,432.805 C35.495,432.805 32.633,435.666 32.633,439.169 C32.633,442.674 35.483,445.534 38.998,445.534 Z M28.772,428.004 L68.228,428.004 C69.75,428.004 70.998,429.25 70.998,430.772 L70.998,455.097 L60.862,444.973 C60.372,444.481 59.585,444.481 59.095,444.973 L44.464,459.603 L36.362,451.501 C35.872,451.01 35.086,451.01 34.595,451.501 L26.003,460.094 L26.003,430.772 C26.003,429.25 27.25,428.004 28.772,428.004 Z M68.228,472.996 L28.772,472.996 C27.25,472.996 26.003,471.75 26.003,470.228 L26.003,463.639 L35.483,454.157 L43.585,462.259 C44.076,462.75 44.862,462.75 45.353,462.259 L59.983,447.629 L70.998,458.643 L70.998,470.228 C70.997,471.75 69.75,472.996 68.228,472.996 Z M23.5,470.228 C23.5,473.141 25.871,475.5 28.772,475.5 L68.228,475.5 C71.14,475.5 73.5,473.129 73.5,470.228 L73.5,430.772 C73.5,427.859 71.129,425.5 68.228,425.5 L28.772,425.5 C25.859,425.5 23.5,427.871 23.5,430.772 L23.5,470.228 Z" id="Fill-324" fill="#FFFFFE"></path>
                <path d="M262.973,54.592 L262.973,74.768 C262.973,75.463 263.536,76.026 264.231,76.026 L284.406,76.026 C283.752,86.593 274.952,94.984 264.231,94.984 C253.08,94.984 244.015,85.919 244.015,74.768 C244.015,64.047 252.406,55.236 262.973,54.592 Z M264.231,97.489 C276.762,97.489 286.951,87.299 286.951,74.768 C286.951,74.074 286.39,73.511 285.694,73.511 L265.478,73.511 L265.478,53.305 C265.478,52.609 264.916,52.047 264.221,52.047 C251.69,52.047 241.5,62.238 241.5,74.768 C241.5,87.299 251.7,97.489 264.231,97.489 Z M271.958,50.055 C281.045,50.668 288.331,57.955 288.945,67.042 L271.958,67.042 L271.958,50.055 Z M270.7,69.545 L290.242,69.545 C290.938,69.545 291.5,68.983 291.5,68.288 C291.5,56.82 282.179,47.499 270.711,47.499 C270.016,47.499 269.454,48.061 269.454,48.746 L269.454,68.288 C269.454,68.994 270.006,69.545 270.7,69.545 Z" id="Fill-325" fill="#FFFFFE"></path>
                <path d="M481.68,200.076 C481.35,200.076 481.03,200.209 480.79,200.444 C480.56,200.679 480.43,200.997 480.43,201.333 L480.43,208.051 L464.73,195.056 L480.44,182.1 L480.44,188.818 C480.44,189.503 480.99,190.065 481.67,190.076 C499.67,190.25 506.38,201.221 508.33,208.931 C500.58,200.086 488.97,200.076 481.68,200.076 Z M505.41,197.705 C501.79,193.296 494.97,188.051 482.94,187.601 L482.94,179.441 C482.94,178.961 482.67,178.511 482.23,178.307 C481.79,178.103 481.26,178.164 480.9,178.47 L461.96,194.084 C461.67,194.319 461.5,194.677 461.5,195.045 C461.5,195.423 461.66,195.771 461.95,196.006 L480.89,211.682 C481.26,211.988 481.78,212.06 482.22,211.845 C482.66,211.64 482.93,211.201 482.93,210.71 L482.93,202.581 C490.78,202.612 502.79,203.195 509.16,214.432 C509.38,214.831 509.8,215.065 510.25,215.065 C510.35,215.065 510.47,215.055 510.57,215.025 C511.12,214.882 511.5,214.38 511.5,213.819 C511.51,209.616 509.9,203.184 505.41,197.705 Z" id="Fill-326" fill="#FFFFFE"></path>
                <path d="M474.64,451.754 L493.34,451.754 L488.45,456.647 C487.96,457.137 487.96,457.923 488.45,458.411 C488.69,458.657 489.01,458.778 489.33,458.778 C489.66,458.778 489.98,458.657 490.22,458.411 L497.25,451.388 C497.74,450.898 497.74,450.113 497.25,449.623 L490.22,442.599 C489.73,442.108 488.95,442.108 488.46,442.599 C487.97,443.088 487.97,443.873 488.46,444.362 L493.35,449.256 L474.64,449.256 C473.95,449.256 473.39,449.816 473.39,450.51 C473.39,451.203 473.95,451.754 474.64,451.754 Z M485.5,427.997 C497.91,427.997 508,438.092 508,450.5 C508,462.908 497.91,473.003 485.5,473.003 C473.09,473.003 463,462.908 463,450.5 C463,438.092 473.09,427.997 485.5,427.997 Z M485.5,475.5 C499.28,475.5 510.5,464.284 510.5,450.5 C510.5,436.716 499.28,425.5 485.5,425.5 C471.72,425.5 460.5,436.716 460.5,450.5 C460.5,464.284 471.72,475.5 485.5,475.5 Z" id="Fill-327" fill="#FFFFFE"></path>
            </g>
        </g>
    </g>
</svg>